<?xml version="1.0" encoding="UTF-8"?>
<!DOCTYPE svg PUBLIC "-//W3C//DTD SVG 1.1//EN" "http://www.w3.org/Graphics/SVG/1.1/DTD/svg11.dtd">
<!-- Creator: CorelDRAW 2020 (64-Bit) -->
<svg xmlns="http://www.w3.org/2000/svg" xml:space="preserve" width="8.26772in" height="5.82677in" version="1.1" style="shape-rendering:geometricPrecision; text-rendering:geometricPrecision; image-rendering:optimizeQuality; fill-rule:evenodd; clip-rule:evenodd"
viewBox="0 0 8267.72 5826.77"
 xmlns:xlink="http://www.w3.org/1999/xlink"
 xmlns:xodm="http://www.corel.com/coreldraw/odm/2003">
 <defs>
  <style type="text/css">
   <![CDATA[
    .fil4 {fill:#13375B;fill-rule:nonzero}
    .fil6 {fill:#2BA14C;fill-rule:nonzero}
    .fil3 {fill:#2D2861;fill-rule:nonzero}
    .fil8 {fill:#352E73;fill-rule:nonzero}
    .fil17 {fill:#3C8F7C;fill-rule:nonzero}
    .fil5 {fill:#7271B3;fill-rule:nonzero}
    .fil7 {fill:#8CD334;fill-rule:nonzero}
    .fil22 {fill:#B75742;fill-rule:nonzero}
    .fil19 {fill:#D1F7FA;fill-rule:nonzero}
    .fil12 {fill:#D6007E;fill-rule:nonzero}
    .fil18 {fill:#EFEFEF;fill-rule:nonzero}
    .fil14 {fill:#F47458;fill-rule:nonzero}
    .fil11 {fill:#F48C7F;fill-rule:nonzero}
    .fil21 {fill:#F79C8D;fill-rule:nonzero}
    .fil13 {fill:#F7A491;fill-rule:nonzero}
    .fil15 {fill:#F8A492;fill-rule:nonzero}
    .fil1 {fill:#FC008B;fill-rule:nonzero}
    .fil9 {fill:#FCC13F;fill-rule:nonzero}
    .fil10 {fill:#FEE2BF;fill-rule:nonzero}
    .fil20 {fill:#FF7A03;fill-rule:nonzero}
    .fil16 {fill:#FFA42F;fill-rule:nonzero}
    .fil2 {fill:white;fill-rule:nonzero}
    .fil0 {fill:url(#id0)}
   ]]>
  </style>
  <linearGradient id="id0" gradientUnits="userSpaceOnUse" x1="3893.51" y1="1192.14" x2="3819.97" y2="3648.87">
   <stop offset="0" style="stop-opacity:1; stop-color:#8BF9FD"/>
   <stop offset="0.988235" style="stop-opacity:1; stop-color:#FAFEE5"/>
   <stop offset="1" style="stop-opacity:1; stop-color:#FAFEE5"/>
  </linearGradient>
 </defs>
 <g id="Layer_x0020_1">
  <metadata id="CorelCorpID_0Corel-Layer"/>
  <g id="_1733681022976">
   <path class="fil0" d="M5310.98 3658.35c351.03,-178.46 373.93,-1043.84 -304.86,-1246.39 -678.78,-202.54 -553.05,-713.66 -1124.13,-1095.72 -520.56,-348.26 -1381.74,-53.06 -1668.57,852.65 -204.54,645.8 34.12,1455.94 196.99,1489.45 1583.69,0 2900.57,0 2900.57,0z"/>
   <path class="fil1" d="M5549.69 2206.08c-59.16,36.98 -137.42,18.95 -174.41,-40.22 -36.94,-59.16 -18.9,-137.39 40.26,-174.38 59.16,-36.99 137.37,-18.94 174.36,40.22 36.99,59.16 18.95,137.39 -40.21,174.38z"/>
   <path class="fil1" d="M5547.96 2203.3c-57.63,36.03 -133.81,18.45 -169.84,-39.18 -36.03,-57.62 -18.47,-133.81 39.15,-169.83 57.62,-36.03 133.81,-18.46 169.84,39.17 36.03,57.63 18.47,133.83 -39.15,169.85z"/>
   <path class="fil2" d="M5568.26 2045.93c29.44,47.13 15.15,109.23 -31.98,138.69 -47.14,29.46 -109.24,15.15 -138.72,-31.99 -29.44,-47.13 -15.1,-109.23 31.98,-138.69 47.14,-29.46 109.24,-15.14 138.72,31.99z"/>
   <path class="fil2" d="M5533.2 2179.74c-44.59,27.87 -103.56,14.27 -131.46,-30.32 -27.9,-44.61 -14.29,-103.59 30.35,-131.48 44.59,-27.89 103.56,-14.28 131.46,30.32 27.9,44.61 14.29,103.58 -30.35,131.48z"/>
   <path class="fil1" d="M5409.96 2138.28l-14.53 9.06c-2.35,1.49 -3.08,4.65 -1.59,7.02 1.49,2.37 4.62,3.09 6.98,1.63l14.52 -9.06c2.36,-1.49 3.08,-4.64 1.59,-7.02 -1.49,-2.38 -4.61,-3.11 -6.97,-1.62z"/>
   <path class="fil1" d="M5523.72 2164.53c-2.41,1.49 -3.13,4.62 -1.63,7.02l9.04 14.48c1.49,2.37 4.67,3.1 7.02,1.61 2.41,-1.48 3.13,-4.62 1.64,-7.02l-9.04 -14.48c-1.49,-2.37 -4.67,-3.1 -7.02,-1.61z"/>
   <path class="fil1" d="M5564.41 2041.7l-14.48 9.06c-2.35,1.49 -3.07,4.63 -1.59,7.01 1.44,2.39 4.62,3.11 6.98,1.62l14.52 -9.06c2.36,-1.48 3.08,-4.63 1.59,-7.01 -1.49,-2.38 -4.62,-3.11 -7.02,-1.61z"/>
   <path class="fil1" d="M5427.14 2010.03c-2.41,1.48 -3.13,4.63 -1.64,7.01l9.04 14.48c1.49,2.38 4.62,3.11 7.02,1.62 2.41,-1.49 3.13,-4.63 1.63,-7.01l-9.09 -14.49c-1.44,-2.38 -4.62,-3.11 -6.97,-1.61z"/>
   <path class="fil1" d="M5455.18 1962.03l-1.87 -19.94c-0.15,-1.64 1.06,-3.09 2.69,-3.24l22.89 -2.1c1.64,-0.15 3.08,1.05 3.22,2.69l1.83 19.94c0.15,1.64 -1.06,3.09 -2.69,3.24l-22.85 2.11c-1.64,0.15 -3.13,-1.06 -3.22,-2.69z"/>
   <path class="fil1" d="M5373.02 2013.96l-17.12 -10.39c-1.4,-0.85 -3.22,-0.41 -4.09,1l-11.88 19.65c-0.86,1.41 -0.43,3.23 1.01,4.08l17.07 10.39c1.44,0.86 3.27,0.41 4.14,-1l11.88 -19.65c0.87,-1.4 0.43,-3.24 -1.01,-4.09z"/>
   <path class="fil1" d="M5392.02 1977.69c-1.35,0.85 -3.18,0.44 -3.99,-0.92l-7.65 -12.22c-0.87,-1.36 -0.43,-3.15 0.91,-3.99l24.92 -15.6c1.39,-0.85 3.17,-0.43 4.04,0.92l7.6 12.23c0.86,1.35 0.48,3.15 -0.92,3.99l-24.91 15.59z"/>
   <path class="fil1" d="M5399.81 1981.27c-12.89,3.13 -26.89,-2.11 -34.34,-13.98 -9.24,-14.83 -4.76,-34.37 10.1,-43.65 14.81,-9.27 34.39,-4.76 43.63,10.07 7.41,11.87 6.01,26.76 -2.45,36.98l4.13 6.63c11.88,-12.65 14.29,-32.2 4.67,-47.59 -11.44,-18.31 -35.64,-23.9 -53.97,-12.45 -18.32,11.45 -23.91,35.67 -12.46,53.99 9.62,15.39 28.28,21.78 44.83,16.64l-4.14 -6.64z"/>
   <path class="fil1" d="M5414.2 1989.35c2.93,-1.81 5.87,-3.51 8.85,-5.07l-11.02 -17.64 -13.8 8.61 10.92 17.42c1.64,-1.15 3.32,-2.26 5.05,-3.33z"/>
   <path class="fil1" d="M5490.48 2093.72c2.69,4.35 1.39,10.08 -2.98,12.8 -4.33,2.72 -10.05,1.39 -12.8,-2.95 -2.69,-4.35 -1.39,-10.07 2.98,-12.8 4.33,-2.72 10.05,-1.39 12.8,2.95z"/>
   <path class="fil1" d="M5480.09 2022.17l5.77 76.34c0.15,1.93 -1.3,3.6 -3.22,3.74 -1.92,0.15 -3.61,-1.3 -3.75,-3.22 0,-0.3 -0.05,3.11 1.2,-76.87z"/>
   <path class="fil1" d="M5554.89 2125.09l-73.06 -22.88c-1.83,-0.57 -2.89,-2.54 -2.26,-4.38 0.53,-1.84 2.5,-2.87 4.33,-2.29 0.33,0.09 -2.84,-1.21 71,29.55z"/>
   <path class="fil1" d="M5485.82 2096.64c1.11,1.78 0.57,4.11 -1.2,5.22 -1.78,1.11 -4.09,0.57 -5.24,-1.2 -1.11,-1.78 -0.58,-4.12 1.2,-5.23 1.78,-1.11 4.14,-0.57 5.24,1.2z"/>
   <polygon class="fil3" points="3947.25,3653.12 4004.48,3653.12 4004.48,3598.87 3947.25,3598.87 "/>
   <polygon class="fil3" points="4176.44,3653.12 4233.66,3653.12 4233.66,3598.87 4176.44,3598.87 "/>
   <polygon class="fil4" points="3928.49,3610.21 3974.41,3610.21 3974.41,3575.56 3928.49,3575.56 "/>
   <path class="fil5" d="M4018.44 2832.8c0,-4.1 3.08,-7.43 6.83,-7.43l116.74 0c3.75,0 6.78,3.33 6.78,7.43l0 206.1 20.68 0 0 -206.1c0,-16.55 -12.31,-30.03 -27.46,-30.03l-116.74 0c-15.15,0 -27.51,13.48 -27.51,30.03l0 206.1 20.69 0 0 -206.1z"/>
   <path class="fil6" d="M4233.49 3611.78l-279.36 -15.69c-14.91,0 -27.03,-12.7 -27.03,-28.38l-26.48 -496.98c-0.82,-34.75 38.61,-40.24 53.52,-40.24l303.99 0c14.96,0 27.08,12.7 27.08,28.38l0 508.83c0.1,26.36 -25.88,43.59 -51.71,44.06z"/>
   <path class="fil7" d="M4216.17 3611.72l-273.2 0c-23.43,0 -42.44,-18.99 -42.44,-42.42l0 -480.77c0,-23.44 19.02,-42.43 42.44,-42.43l273.2 0c23.43,0 42.43,19 42.43,42.43l0 480.77c0,23.43 -19,42.42 -42.43,42.42z"/>
   <path class="fil6" d="M4192.17 3611.72l-222.13 0 0 -281.47c0,-61.33 49.74,-111.04 111.06,-111.04l0 0c61.33,0 111.06,49.71 111.06,111.04l0 281.47z"/>
   <path class="fil8" d="M4088.61 3009.16c28.09,0 51.95,12.48 52.91,27.46l22.61 0c-0.87,-24.66 -34.34,-44.49 -75.52,-44.49 -41.17,0 -74.65,19.83 -75.52,44.49l22.56 0c0.96,-14.98 24.82,-27.46 52.96,-27.46z"/>
   <path class="fil8" d="M4129.64 2827.05l-90.67 0c-7.98,0 -14.43,-6.45 -14.43,-14.41l0 0c0,-7.96 6.44,-14.41 14.43,-14.41l90.67 0c7.98,0 14.43,6.45 14.43,14.41l0 0c0,7.96 -6.44,14.41 -14.43,14.41z"/>
   <path class="fil1" d="M3758.05 1476.6c0,0 6.08,-17.16 26.44,-23.28 18.15,-5.46 35,5.2 40.06,22.01 5.84,19.45 -4.3,47.59 -42.55,80.91 -50.3,-6.69 -74.27,-24.57 -80.13,-44.02 -5.04,-16.81 3.12,-35 21.29,-40.46 20.35,-6.13 34.89,4.83 34.89,4.83z"/>
   <path class="fil1" d="M3610.28 1529.42c18.48,-2.44 33.24,-5.34 47.59,-8.88 4.72,-1.17 13.29,-1.79 15.57,-6.66 1.17,-2.53 0.82,-5.16 -1.61,-6.84 -4.48,-3.07 -11.21,0.23 -15.98,1.4 -14.54,3.57 -31.17,6.93 -48.18,9.34 -3.17,0.46 -5.18,4.15 -4.51,7.11 0.75,3.37 3.9,4.94 7.11,4.52l0 0z"/>
   <path class="fil1" d="M3862.21 1507.17c7,-1.59 13.93,-3.31 20.89,-5.02 6.66,-1.63 14.82,-2.38 20.56,-6.2 4.26,-2.81 3.18,-9.09 -2.16,-9.65 -6.89,-0.72 -14.37,2.33 -21.03,3.98 -6.96,1.72 -13.91,3.42 -20.85,5.25 -7.39,1.96 -4.92,13.35 2.59,11.63l0 0z"/>
   <path class="fil1" d="M3696.69 1604.9c5.18,-16.78 14.72,-23.89 21.48,-31.49 3.61,-4.06 -0.36,-9.9 -5.47,-7.77 -14.04,5.84 -23.24,21.92 -27.36,35.82 -2.17,7.32 9.09,10.76 11.35,3.44l0 0z"/>
   <path class="fil1" d="M3785.87 1622.17c-2.02,-7.13 -2.63,-14.42 -1.61,-21.77 0.63,-4.5 6.15,-17.96 -2.55,-18.12 -8.19,-0.16 -9.28,13.51 -9.82,19.3 -0.72,7.76 0.1,15.72 2.3,23.19 2.15,7.35 13.8,4.84 11.68,-2.6l0 0z"/>
   <path class="fil1" d="M3834.3 1564.04c4.55,1.87 9.09,3.75 13.64,5.62 4.55,1.87 9.24,5.06 14.07,2.78 2.73,-1.28 3.15,-4.43 2.2,-6.93 -1.72,-4.56 -8.57,-5.85 -12.72,-7.53 -4.57,-1.84 -9.13,-3.69 -13.68,-5.53 -3.04,-1.23 -6.67,1.11 -7.57,4.04 -1.02,3.38 1.02,6.3 4.06,7.55l0 0z"/>
   <path class="fil1" d="M3699.84 1445.5c-23.41,-32 -23.15,-32.25 -26.83,-34.46 -3.81,-2.26 -8.9,1.14 -7.84,5.57 1.04,4.38 0.94,3.65 25.68,37.22 1.96,2.67 6.43,2.4 8.66,0.33 2.67,-2.47 2.3,-5.98 0.34,-8.67l0 0z"/>
   <path class="fil1" d="M3763.27 1429.75c0.88,-6.47 1.08,-12.96 0.57,-19.47 -0.47,-6.05 -0.37,-15.4 -6.78,-18.14 -1.37,-0.59 -3.53,-0.04 -4.53,1.05 -4.13,4.55 -1.19,12.23 -0.78,17.81 0.47,6.09 0.26,12.23 -0.33,18.3 -0.31,3.19 2.65,6.04 5.7,6.16 3.47,0.13 5.72,-2.53 6.15,-5.71l0 0z"/>
   <path class="fil1" d="M3854.33 1413.9c0.39,-2.97 -2.41,-5 -4.96,-5.36 -5.27,-0.74 -10.45,5.43 -13.89,8.79 -4.02,3.91 -7.63,8.18 -10.98,12.68 -1.92,2.59 -0.63,6.63 1.94,8.23 3.04,1.87 6.21,0.59 8.25,-1.94 13.23,-16.54 18.7,-15.09 19.64,-22.41z"/>
   <path class="fil9" d="M5158.5 1690.55c-1.25,-17.37 11.88,-32.43 29.24,-33.63 17.36,-1.21 32.42,11.89 33.62,29.27 1.2,17.36 -11.88,32.43 -29.24,33.63 -17.37,1.21 -32.42,-11.89 -33.62,-29.27z"/>
   <path class="fil9" d="M5211.94 1779.57c-1.87,-9.15 -3.03,-18.94 -6.16,-27.75 -2.65,-7.58 -14.48,-5.26 -13.9,2.88 0.77,9.97 3.85,20.07 5.96,29.84 0.82,3.96 6.06,5.79 9.52,4.57 4.24,-1.48 5.39,-5.56 4.57,-9.54l0 0z"/>
   <path class="fil9" d="M5265.95 1740.52c-10.44,-6.16 -19.53,-13.8 -29.2,-21.08 -7.5,-5.7 -15.63,4.1 -9.43,10.87 8.9,9.72 20.59,17.31 31.84,23.95 3.56,2.1 8.52,0.05 10.3,-3.47 1.93,-3.94 0.1,-8.17 -3.51,-10.27l0 0z"/>
   <path class="fil9" d="M5246.19 1684.08c-2.36,1.9 -2.84,4.63 -1.4,7.28 3.56,6.41 12.51,6.09 18.91,5.87 6.64,-0.22 13.28,-1.58 19.57,-3.72 9.28,-3.17 4.24,-17.59 -5.1,-14.41 -18.23,6.22 -25.11,-0.53 -31.98,4.98z"/>
   <path class="fil9" d="M5236.13 1622.78c-9.14,13.43 -16.69,17.96 -15.49,25.34 0.68,4.32 4.09,6.39 8.28,5.44 4.91,-1.12 7.6,-6.34 10.58,-10.02 2.83,-3.52 5.58,-7.04 8.13,-10.79 2.26,-3.4 2.6,-7.8 -0.77,-10.72 -2.79,-2.46 -8.37,-2.67 -10.73,0.74l0 0z"/>
   <path class="fil9" d="M5200.39 1620.45c-2.93,-8.13 -3.56,-11.1 -7.41,-14.88 -3.27,-3.29 -10.29,-1.19 -10.72,3.65 -0.53,5.65 0.63,7.74 3.7,16.3 1.39,3.88 5.82,6.04 9.76,4.67 3.89,-1.36 6.06,-5.85 4.67,-9.74l0 0z"/>
   <path class="fil9" d="M5161.77 1640.14c-13.22,-10.05 -15.92,-12.88 -21.11,-12.33 -3.03,0.32 -6.44,3.25 -5.77,6.67 1.2,6.35 4.91,8.08 17.07,16.95 3.27,2.37 7.74,2.5 10.58,-0.73 2.5,-2.9 2.45,-8.1 -0.77,-10.56l0 0z"/>
   <path class="fil9" d="M5108.62 1686.21c-5.19,2.76 -3.08,11.78 2.55,12.51 5.39,0.7 7.5,-0.16 33.76,-4.96 4.04,-0.74 7.41,-3.7 7.07,-8.15 -0.24,-3.77 -4.04,-7.82 -8.13,-7.09 -27.28,4.92 -30.02,4.9 -35.26,7.68z"/>
   <path class="fil9" d="M5149.79 1729.16c-14.38,13.94 -16.5,11.47 -22.17,19.99 -2.6,3.89 1.69,10.1 6.2,9.27 5.82,-1.07 7.36,-2.04 14.96,-8.04 4.37,-3.48 8.56,-7.22 12.6,-11.11 3.03,-2.89 2.21,-8.3 -0.72,-10.86 -3.37,-2.92 -7.89,-2.14 -10.87,0.76l0 0z"/>
   <path class="fil10" d="M1791.18 3658.8l0 0c0,5.37 4.37,9.74 9.74,9.74l3971.28 0c5.39,0 9.72,-4.37 9.72,-9.74l0 0c0,-5.39 -4.33,-9.76 -9.72,-9.76l-3971.28 0c-5.37,0 -9.74,4.37 -9.74,9.76z"/>
   <path class="fil11" d="M2990.92 2786.16c-0.09,-4.43 -37.77,-264.3 -42.43,-271.84l-28.87 -147.42 -91.57 -9.6c0,0 36.78,190.89 40.47,200.54 2.23,5.9 84.48,300.48 84.48,300.48 0,0 -1.04,38.32 12.48,38.32 13.52,0 61.29,-13.98 61.29,-13.98l5.86 -24.35 -41.71 -72.15z"/>
   <path class="fil1" d="M3205.43 3275.59l-340.03 0c-43.24,0 -78.29,-35.04 -78.29,-78.26l0 -200.1c0,-43.22 35.04,-78.27 78.29,-78.27l340.03 0c43.24,0 78.28,35.04 78.28,78.27l0 200.1c0,43.22 -35.05,78.26 -78.28,78.26z"/>
   <path class="fil8" d="M2929.86 2930.89l0 -17.58c0,-16.9 13.76,-30.66 30.66,-30.66l72.11 0c16.89,0 30.65,13.76 30.65,30.66l0 17.58 24.33 0 0 -17.58c0,-30.32 -24.66,-55 -54.98,-55l-72.11 0c-30.32,0 -55,24.68 -55,55l0 17.58 24.34 0z"/>
   <path class="fil12" d="M3116.56 3275.59l-340.05 0c-43.22,0 -78.27,-35.04 -78.27,-78.26l0 -200.08c0,-43.24 35.05,-78.29 78.27,-78.29l340.05 0c43.22,0 78.26,35.04 78.26,78.27l0 200.1c0,43.22 -35.05,78.26 -78.26,78.26z"/>
   <path class="fil8" d="M2881.37 2356.65c-8.64,-107.37 -20.2,-203.28 -24.07,-215.45 -23.44,-73.91 -345.62,-78.83 -379.33,43.77 -4.92,17.89 -17.29,77.15 6.31,161.92l189 -75.74 208.1 85.5z"/>
   <path class="fil5" d="M2515.64 2220.54c-13.15,47.85 35.38,530.28 56.35,551.23 20.95,20.97 281.25,4.06 319.1,-33.79 37.87,-37.87 -13.11,-576.09 -33.79,-596.78 -20.7,-20.67 -307.95,-43.26 -341.67,79.34z"/>
   <path class="fil3" d="M2725.49 2501.44l-14.68 2.5c-8.61,-50.41 -15.64,-92.71 -21.39,-128.17 -28.57,-176.66 -24.97,-184.13 -25.26,-186.19 -0.26,-27.46 -16.92,-51.91 -42.46,-62.31l-49.84 -20.29c7.49,-2.47 15.23,-4.67 23.19,-6.61l32.26 13.13c54.02,21.97 51.69,77.05 51.72,77.19 0,20.66 13.12,107.1 25.41,183.6 10.74,66.7 20.81,125.86 21.05,127.13z"/>
   <path class="fil3" d="M2859.28 2491.98c-51.55,-301.59 -46.3,-311.91 -46.65,-314.37 -0.25,-27.44 -16.92,-51.9 -42.46,-62.28l-67.4 -27.43 5.6 -13.77 67.41 27.43c54,21.98 51.67,77.06 51.72,77.18 0,38.69 45.98,308.03 46.43,310.75l-14.66 2.51z"/>
   <path class="fil3" d="M2544.56 2625.61c0.65,5.11 1.31,10.17 1.96,15.15 73.07,7.46 265.12,20.99 315.18,-15.78l-8.8 -12c-46.16,33.91 -242.93,19.48 -308.34,12.62z"/>
   <path class="fil13" d="M2468.54 3520.01c0,0 -19.37,18.99 -19.82,25.97 -0.43,6.96 -1.7,81.64 6.2,88.61 7.92,6.96 31.17,11.9 23.68,19.76 -5.65,5.92 -49.08,4.65 -77.87,3.06 -8.41,-0.47 -18.94,-67.81 -22.27,-77.72 -4.84,-14.37 -22.25,-45.67 -17.86,-55.69 2.13,-4.88 18.03,-16.01 32.48,-25.38 15.2,-9.84 29.72,-31.78 29.72,-31.78l45.75 53.16z"/>
   <path class="fil13" d="M2727.8 3566.66c0,0 -15.03,42.63 -17.11,48.65 -0.18,0.43 -6.63,27.75 -6.63,34.83 0,26.64 119.55,-22.6 92.75,-34.4 -2.41,-1.06 -10.02,-9.61 -10.82,-18.66 -1.24,-13.96 10.07,-31.48 10.07,-31.48l-68.27 1.06z"/>
   <path class="fil6" d="M2892.78 2632.38l43.28 111.07c0,0 28.24,265.08 11.8,423.77 -6.88,66.35 -155.77,421.61 -155.77,421.61l-73.93 -10.48 99.04 -420.67 -36.46 -160.88 -51.57 -318 163.6 -46.41z"/>
   <path class="fil7" d="M2688.89 2638.16l-37.14 123.68 -56.47 373.31 -190.99 349.19c0,0 28.72,43.71 59.55,50.57l271.07 -352.93 146.93 -441.84 -5.15 -98.16 -187.8 -3.82z"/>
   <path class="fil12" d="M2934.12 2419.35l-105.39 10.8c0,0 -4.84,-86.77 -4.84,-128.17 0,-50.24 9.25,-113.08 15.17,-111.26 16.41,5.07 34.91,11.04 48.49,29.78 47.02,64.89 46.57,198.85 46.57,198.85z"/>
   <path class="fil3" d="M2487.3 3646.2c-7,-8.17 -30.34,-16.46 -34.97,-18.07 -17.48,-6.09 -58.3,-130.13 -58.3,-130.13 0,0 -35.44,10.41 -38.18,15.84 -2.74,5.43 21.92,65.19 21.92,65.19 4.65,24.44 16.43,80.11 16.43,80.11l82.93 0c6.47,0 17.76,-4.06 10.17,-12.94z"/>
   <path class="fil3" d="M2697.26 3658.94l13.41 -43.63c0,0 29.05,12.41 43.41,10.37 14.37,-2.04 42.43,-10.19 42.43,-10.19 57.39,18.97 104.4,28.19 95.85,43.45l-195.11 0z"/>
   <path class="fil1" d="M2702.3 2184.68c0,0 -55.8,7.68 -70.48,18.37 -16.52,12.03 -67.74,68.17 -67.74,68.17 0,0 106.59,302.56 102.45,356.4 -4.12,53.82 -15.82,133.56 -15.82,133.56 0,0 207,12.93 285.39,-17.72 0,0 -24.75,-121.98 -24.75,-154 0,-32.03 -13.9,-352.17 -23.8,-368.94 -9.9,-16.76 -29.83,-26.31 -67.66,-34.48 -37.83,-8.17 -117.59,-1.35 -117.59,-1.35z"/>
   <path class="fil13" d="M2717.53 2098.28l-13.76 86.37c0,0 50.37,109.9 80.48,100.65 25.27,-7.76 9.72,-102.16 9.72,-102.16 0,0 -13.76,-50.68 -9.65,-76.05 4.14,-25.37 -66.8,-8.81 -66.8,-8.81z"/>
   <path class="fil14" d="M2784.33 2107.1c4.14,-25.37 -66.8,-8.81 -66.8,-8.81l-1.16 7.43c2.08,4.97 4.63,9.22 7.7,12.49 15.83,16.78 40.61,26.86 62.02,27.62 -2.14,-13.67 -3.45,-28.33 -1.77,-38.73z"/>
   <path class="fil13" d="M2705.89 1971.54c-2,-0.72 -16.07,102.04 10.63,130.31 26.7,28.28 78.7,37.53 97.35,15.26 20.63,-24.63 19.6,-135.07 -21.91,-164.16 -41.5,-29.09 -86.07,18.58 -86.07,18.58z"/>
   <path class="fil9" d="M2660.87 1974.87c-23.81,41.75 -6.57,86.35 22.7,108.63 29.24,22.27 28.74,47.77 28.74,47.77l4.74 -13.09c3.41,-10.08 4.8,-20.77 3.67,-31.34 -0.68,-6.34 -2.07,-13.2 -4.74,-18.84 -7.04,-14.87 15.13,-24.75 21.32,-37.13 4.78,-9.52 5.02,-31.32 12.56,-47.07l9 -12.02c0,0 20.76,-15.9 41.08,-11.41 20.31,4.48 -86.87,-76.98 -139.07,14.5z"/>
   <path class="fil13" d="M2735.94 2049.17c0.21,12.54 -5.59,22.8 -12.94,22.93 -7.35,0.13 -13.48,-9.94 -13.7,-22.48 -0.22,-12.54 5.58,-22.8 12.93,-22.93 7.35,-0.12 13.49,9.94 13.7,22.48z"/>
   <path class="fil7" d="M2768.96 1931.23c-7.88,-5.49 -22.68,-16.12 -37.46,-24.04 -19.58,-10.5 -43.53,-8.17 -60.8,5.81 -23.46,19 -51.73,47.4 -48.24,71.81 0,0 27.19,56.79 27.19,70.31 0,13.52 0,32.45 0,32.45 0,0 129.62,-64.68 188.26,-142.2 0,0 -40.63,5.63 -68.95,-14.14z"/>
   <path class="fil6" d="M2782.1 1938.41c-43.56,55.24 -108.28,89.7 -135.77,102.65 0.62,1.85 1.17,3.6 1.64,5.23 12.78,-5.96 33.85,-16.63 57,-31.87 25.4,-16.7 57.21,-41.58 82.4,-74 -1.77,-0.61 -3.53,-1.28 -5.27,-2.02z"/>
   <path class="fil8" d="M2561.65 2952.77l-17.8 0 0 -65.84c0,-1.94 -1.43,-3.5 -3.19,-3.5l-97.16 0c-1.76,0 -3.19,1.56 -3.19,3.5l0 65.84 -17.8 0 0 -65.84c0,-12.74 9.41,-23.11 20.99,-23.11l97.16 0c11.58,0 20.99,10.37 20.99,23.11l0 65.84z"/>
   <path class="fil9" d="M2748.13 3253.29l-496.64 0c-26.01,0 -47.11,-21.09 -47.11,-47.1l0 -243.99c0,-26.01 21.09,-47.1 47.11,-47.1l496.64 0c26.03,0 47.12,21.09 47.12,47.1l0 243.99c0,26.01 -21.09,47.1 -47.12,47.1z"/>
   <path class="fil10" d="M2763.44 2915.1l-52.51 0c17.56,0 31.81,12.58 31.81,28.12l0 281.94c0,15.53 -14.25,28.13 -31.81,28.13l52.51 0c17.56,0 31.81,-12.6 31.81,-28.13l0 -281.94c0,-15.54 -14.25,-28.12 -31.81,-28.12z"/>
   <path class="fil15" d="M2522.7 2810.37c-3.89,-2.55 0.26,-66.22 0.26,-66.22 0,0 6.45,-183.32 7.14,-193.2l82.34 -169.25 -71.17 -66.43c0,0 -84.75,186.59 -87.49,197.16 -2.75,10.56 16.83,259.73 17.87,281.7 0,0 -14.9,33.24 -19.54,50.09 -4.65,16.88 3.51,33.89 2.92,38.85 -0.07,0.74 18.43,11.47 23.33,10.06 14.66,-4.2 22.85,-5.39 26.3,-4.63 20.37,4.63 13.62,-24.83 16.98,-24.69 3.35,0.11 14.78,0 16.78,0 3.06,0 5.19,-39.75 -15.7,-53.45z"/>
   <path class="fil1" d="M2494.85 2379.67l93.3 72.13c0,0 41.2,-39.16 61.88,-82.46 20.95,-43.82 6.31,-173.6 -15.99,-167.66 -49.87,13.31 -139.19,178 -139.19,178z"/>
   <path class="fil3" d="M2829.63 2151.12l0 29.11 -2.18 -5.76c0.25,0.47 56.18,62.43 84.14,198.2l2.59 13.23c7.1,42.1 8.76,66.88 8.76,66.74 4.25,59.98 2.41,83.97 -1.49,134.13 -0.72,8.56 -12.46,10.44 -15.85,2.54 -11.67,-27.17 -16.25,-55.21 -20.66,-82.38 -3.57,-23.35 -6.41,-63.51 -6.41,-63.37 -0.65,-5.02 -3.15,-45.3 -16.94,-112.46 -19.44,-89 -42.52,-133.54 -47.39,-145.11 -0.16,-0.18 -2.28,-2.7 -2.16,-2.57 0,-5.21 0,-19.6 0,-32.3 0,-4.84 3.94,-8.78 8.78,-8.78 4.86,0 8.8,3.94 8.8,8.78z"/>
   <path class="fil3" d="M2681.21 2157.37l0.82 23.94 0 4.8c34.59,60.74 84.03,198.85 57.27,337.93 -9.96,45.48 -32.34,105 -74.54,124.7 -4.14,2.55 -12.04,-1.06 -14.59,-5.19 -2.55,-4.14 7.91,-16.35 7.82,-16.21 21.87,-40.61 31.72,-172.55 30.19,-210.14 -0.96,-85.57 -16.55,-169.85 -24.05,-225.5l-0.49 -33.44c-0.24,-4.86 3.51,-8.98 8.35,-9.22 4.84,-0.23 8.98,3.49 9.21,8.33z"/>
   <path class="fil11" d="M2962.78 2892.81c0,0 -17.91,-22.33 -7.1,-30.09 10.8,-7.78 55.61,2.2 58.82,5.41 3.2,3.19 15.88,14.52 15.88,14.52l-67.6 10.15z"/>
   <path class="fil5" d="M3593.9 2328.21l-50.41 -122.21c-23.36,-56.62 -99.41,-106.07 -154.96,-80.28l-137.11 -289.16c-11.69,-28.31 -44.1,-41.78 -72.41,-30.11l0 0c-28.31,11.68 -41.79,44.09 -30.11,72.39l135.52 285.79c-126.83,46.37 -9.17,213.9 14.27,270.7 0,0 -38.46,82.61 -18.59,158.53 54.85,209.37 185.57,223.93 283.79,183.4l59.72 -24.62c98.22,-40.54 95.85,-233 44.35,-340.58 -13.83,-28.89 -74.07,-83.85 -74.07,-83.85z"/>
   <path class="fil3" d="M3958.26 2084.66c7.36,-33.28 14.48,-66.78 -4.81,-103.35 -15.58,-29.59 -42.61,-46.62 -73.87,-50.33 -88.56,-10.51 -96.36,68.63 -180.47,103.27 -35.95,14.8 -72.8,10.56 -104.92,29.69 -57.98,34.54 -36.62,76.35 1.83,166.6 94.15,221.02 256.15,93.04 284.7,49.52 21.22,-32.38 72.81,-173.97 77.53,-195.4z"/>
   <path class="fil11" d="M3907.16 2198.24c-47.5,14.83 -148.16,88.95 -154.61,87.38l-117.23 -93.3 -72.13 63.31c0,0 160.92,119.15 170.07,123.52 6.76,3.23 134.32,-105.17 201.1,-137.83 -0.91,-21.74 -16.55,-24.07 -27.2,-43.08z"/>
   <path class="fil16" d="M3720.63 2244.57l-73.46 95.12c0,0 -77.42,-59.53 -105.98,-91.53 -34.65,-38.85 -72.52,-122.26 -66.94,-125.31 15.69,-8.57 49.54,-15.43 72.9,-10.21 80.79,18.06 173.48,131.93 173.48,131.93z"/>
   <path class="fil11" d="M3904.12 2251.43l-9.06 -47.3c0,0 26.74,6.39 43.77,32.85 17.03,26.44 45.55,115.84 50.41,118.48 4.86,2.65 58.73,-80.32 68.11,-93.42 11.64,-16.17 16.02,-34.73 23.33,-48.84 7.26,-14.11 32.95,-18.91 42.67,-17.15 9.76,1.76 -13.32,43.02 -13.32,43.02 0,0 -58.39,101.4 -77.83,156.94 -19.48,55.55 -80.23,81.99 -89.95,74.07 -9.76,-7.94 -38.12,-218.67 -38.12,-218.67z"/>
   <path class="fil6" d="M3914.67 2393.38l74.33 -42.39c0,0 -33.77,-142.28 -93.94,-146.85l19.6 189.24z"/>
   <path class="fil13" d="M4081.3 2220.98c0,0 2.41,-10.68 8.99,-12.86 6.54,-2.17 17.94,-0.23 18.67,0 0.72,0.24 13.37,-6.54 13.37,-6.54l-10.48 19.4c0,0 -20.35,24.03 -27.13,15.05 -6.83,-8.98 -3.41,-15.05 -3.41,-15.05z"/>
   <path class="fil11" d="M4125.94 2202.46c0,0 7.36,37.45 5.53,45.3 -1.87,7.86 -6.59,3.65 -7.45,1.94 -3.61,-7.03 -6.16,-31.06 -6.16,-31.06l8.08 -16.17z"/>
   <path class="fil11" d="M4110.11 2233.6c0,0 3.51,23.23 7.12,25.95 2.31,1.78 5.34,0.72 6.3,-3.96 0.96,-4.69 -4.72,-33.32 -4.72,-33.32l-8.7 11.33z"/>
   <path class="fil8" d="M4088.66 2299.5l-12.22 -5.96 51.85 -106.43 0 0c6.74,3.3 9.57,11.43 6.25,18.17l-45.89 94.22z"/>
   <path class="fil13" d="M3604.11 3480.75c0,0 -6.31,64.04 -22.52,75.8 -16.21,11.74 -37.8,55.24 -27.01,78.76 3.37,7.35 10.14,11.6 17.82,13.96 22.78,7.02 47,-4.78 56.7,-26.56 5.41,-12.15 10.17,-28.38 11.13,-48.83 2.43,-52.02 18.64,-78.46 18.64,-78.46l-54.76 -14.66z"/>
   <path class="fil13" d="M3853.21 3506.96c0,0 5.12,64.6 0.96,85.59 -2.21,11.25 -14.58,34.4 -8.9,44.98 5.67,10.56 12.15,13.21 12.15,13.21l147.06 2.37c7.98,0.12 2.69,-5.02 -3.75,-9.76 -10.58,-7.76 -19.1,-12.88 -52.86,-29.18 -2.21,-1.06 -10.25,-6.16 -13.13,-7.93 -7.31,-4.46 -14.67,-11.48 -21.02,-18.54 -10.56,-11.72 -11.48,-68.62 -11.48,-68.62l-49.02 -12.13z"/>
   <path class="fil12" d="M3968.17 2648.19c0,0 18.52,104.91 6.35,173.66 -12.17,68.78 -70.52,706.21 -70.52,706.21l-64.85 3.65c0,0 -13.59,-266.28 -11.16,-303.3 2.43,-37.02 21.68,-99 21.68,-99l-6.47 -214.98 81.83 -282.43 43.14 16.19z"/>
   <path class="fil1" d="M3777.56 2626.14c0,0 -51.06,76.7 -63.21,140.18 -12.17,63.47 8.92,258.56 -14.46,341.74 -12.67,45.02 -60.65,114.57 -67.94,172.76 -7.31,58.2 -35.93,210.61 -35.93,210.61l64.82 12.82 150.65 -380.67 118.16 -344.05 30.26 -177.21 -182.34 23.81z"/>
   <path class="fil7" d="M3818.89 2189.71c0,0 -35.01,5.78 -61.1,31.3 -55.92,54.74 32.87,265.84 37.74,302.87 4.86,37.03 -39.85,123.41 -39.85,123.41 0,0 167.08,30.89 212.49,0.9 0,0 5.29,-297.11 0.43,-323.57 -4.85,-26.44 -59.25,-108.07 -68.97,-118.64 -9.74,-10.58 -80.74,-16.27 -80.74,-16.27z"/>
   <path class="fil13" d="M3755.66 2245.85c4.31,-13.04 19.09,-19.31 31.68,-13.86 17.26,7.44 41.1,21.62 52.74,45.89 19.46,40.57 87.54,179.87 108.61,185.17 21.07,5.29 107.02,-144.59 107.02,-144.59 0,0 -2.45,-26.46 4.86,-41.44 7.26,-15 29.15,-30.87 32.42,-25.58 3.22,5.29 -12.17,18.52 -12.17,21.17 0,2.63 6.49,4.41 15.39,-0.88 8.95,-5.29 13.76,-16 13.76,-16 0,0 14.62,26.56 -0.77,50.38 -15.39,23.79 -21.89,33.5 -21.89,33.5 0,0 -99.71,221.31 -136.17,223.96 -33.96,2.47 -229.63,-214.53 -195.48,-317.71z"/>
   <path class="fil13" d="M3841.39 2099.56c0,0 -0.35,1.99 -0.98,5.37 -3.02,16.22 -14.62,70.02 -22.47,84.82 -9.46,17.88 32.44,74.9 72.8,67.94 12.02,-2.06 -10.15,-52.37 -9.09,-57.7 2.04,-10.21 4.81,-24.13 7.65,-38.39 1.59,-8.06 3.21,-16.22 4.72,-23.9 4.31,-21.8 7.84,-39.64 7.84,-39.64l-60.47 1.51z"/>
   <path class="fil14" d="M3840.42 2104.93c0.63,-3.38 0.98,-5.37 0.98,-5.37l60.47 -1.51c0,0 -3.53,17.83 -7.84,39.64 -1.51,7.63 -3.11,15.74 -4.7,23.76 -9.33,-1.37 -19.09,-5.9 -28.87,-14.44 -10.67,-9.31 -17.64,-20.51 -21.86,-32.46 0.75,-3.81 1.35,-7.1 1.83,-9.61z"/>
   <path class="fil13" d="M3877.78 1955.86c0,0 -24.66,3.43 -42.53,26.48 -17.86,23.06 -37.11,94.37 7.27,133.13 44.37,38.78 88.19,-5.11 94.73,-51.64 6.49,-46.52 5.19,-109.64 -59.47,-107.96z"/>
   <path class="fil13" d="M3951.43 2047.93c-5.29,10.28 -14.19,15.96 -19.87,12.71 -5.68,-3.26 -5.96,-14.23 -0.67,-24.5 5.29,-10.28 14.19,-15.97 19.87,-12.71 5.68,3.25 5.96,14.22 0.67,24.5z"/>
   <path class="fil3" d="M3885.28 1954.79c0,0 -38.07,67.8 -65.31,70.94 -27.22,3.13 -30.81,39.17 -30.81,39.17 0,0 9.74,-83.02 36.71,-99.03 26.95,-16.01 59.41,-11.07 59.41,-11.07z"/>
   <path class="fil13" d="M3828.87 2041.88c2.22,12.04 -2.23,23.08 -9.94,24.67 -7.72,1.58 -15.76,-6.9 -17.97,-18.94 -2.22,-12.04 2.23,-23.08 9.96,-24.66 7.7,-1.58 15.74,6.9 17.95,18.94z"/>
   <path class="fil17" d="M3633.51 3611.25c-35.32,6.43 -58.82,-14.19 -71.06,-29.63 -8.98,17.48 -14.48,39.32 -7.88,53.69 5.82,12.66 21.06,13.68 34.44,14.17 14.15,0.53 27.99,-4.43 35,-16.74 3.28,-5.74 6.67,-12.9 9.49,-21.48z"/>
   <path class="fil17" d="M3934.74 3606.25c-38.89,9.96 -67.65,3.18 -83.72,-3.29 -4.16,11.74 -9.65,26.44 -6.74,34.93 3.58,10.41 8.66,12.74 13.15,12.86 35.52,0.94 130.13,2.2 157.21,2.55 3.76,0.06 5.87,-4.35 3.42,-7.25 -6.69,-8 -80.43,-38.02 -83.31,-39.79z"/>
   <path class="fil6" d="M3810.25 2440.37l87.56 -57.47c0,0 -36.48,-103.06 -76.62,-139.54 -40.13,-36.47 -59.1,-27.61 -67.48,-20.05 -23.27,20.97 -19.15,72.03 7.29,134.97 26.44,62.94 49.25,82.09 49.25,82.09z"/>
   <path class="fil13" d="M3672.73 3518.29c0,0 -3.41,60.31 -3.45,60.43 -1.26,7.66 -6.2,26.58 -6.2,33.54 0,26.17 116.37,-22.19 90.3,-33.77 -2.37,-1.06 -14.74,-8.99 -15.5,-17.9 -1.19,-13.72 -4.24,-41.45 -4.24,-41.45l-60.92 -0.84z"/>
   <path class="fil1" d="M3753.09 3578.22c0,0 -27.32,8 -41.32,10 -13.99,2 -33.87,-7.57 -43.77,-3.02 -10.9,5.02 -7.33,64.31 -7.33,64.31 0,0 147.75,3.78 196.75,1.24 17.13,-0.88 -48.49,-53.9 -104.33,-72.52z"/>
   <path class="fil13" d="M3416.35 3524.07c0,0 -3.41,60.31 -3.43,60.44 -1.26,7.65 -6.19,26.58 -6.19,33.54 0,26.15 116.35,-22.2 90.28,-33.79 -2.38,-1.06 -18.39,-14.92 -19.17,-23.81 -1.19,-13.72 -0.57,-35.54 -0.57,-35.54l-60.92 -0.84z"/>
   <path class="fil1" d="M3496.72 3584.01c0,0 -27.32,8 -41.32,10 -13.97,2 -32.44,-14.83 -42.33,-10.29 -10.88,5.02 -13.69,65.33 -13.69,65.33 0,0 160.74,7.15 198.36,1.8 16.97,-2.43 -45.16,-48.2 -101.02,-66.84z"/>
   <path class="fil3" d="M3600.76 2653.35l49.2 21.23 103.49 494.21 -4.19 370.49 -82.97 1.92c0,0 -38.57,-324.07 -38.57,-349.2 0,-25.11 -178.74,-439.5 -178.74,-439.5l151.78 -99.14z"/>
   <path class="fil8" d="M3562.79 2680.55c0,0 -13.76,374.91 -13.76,439.07 0,64.2 -19.57,425.05 -19.57,425.05l-115.45 3.76c0,0 -6,-109.49 -14.92,-270.59 -1.39,-25.23 1.8,-76.13 0,-102.24 -12.94,-187.85 -38.51,-364.69 -26.3,-434.8 1.96,-11.27 5.67,-40.77 12.85,-48.22 54.46,-56.35 177.15,-12.04 177.15,-12.04z"/>
   <path class="fil9" d="M3425.82 2111.11c0,0 -57.37,7.97 -72.48,19.07 -17.01,12.49 -35.89,40.44 -35.89,40.44 0,0 70.46,333.02 70.59,389.06 0.09,43.36 -15.25,149.79 -15.25,149.79 0,0 212.88,13.44 293.52,-18.38 0,0 -25.46,-126.6 -25.46,-159.85 0,-33.24 -30.46,-335.54 -37.38,-356.65 -6.29,-19.15 -17.8,-53.57 -56.69,-62.06 -38.91,-8.49 -120.96,-1.41 -120.96,-1.41z"/>
   <path class="fil13" d="M3441.48 2021.45l-13.72 89.84c0,0 43.14,77.02 74.11,67.41 26,-8.06 18.25,-69.16 18.25,-69.16 0,0 -14.17,-52.61 -9.92,-78.94 4.25,-26.33 -68.72,-9.15 -68.72,-9.15z"/>
   <path class="fil14" d="M3510.2 2030.59c4.25,-26.33 -68.72,-9.15 -68.72,-9.15l-1.17 7.72c2.13,5.16 4.74,9.57 7.91,12.96 16.31,17.42 41.77,27.88 63.8,28.68 -2.21,-14.2 -3.57,-29.41 -1.82,-40.21z"/>
   <path class="fil13" d="M3429.52 1889.89c-2.06,-0.75 -16.54,105.91 10.92,135.26 27.46,29.35 80.95,38.95 100.14,15.83 21.21,-25.56 20.15,-140.19 -22.54,-170.38 -42.67,-30.19 -88.52,19.29 -88.52,19.29z"/>
   <path class="fil3" d="M3501.8 1813.56c-32.99,6.68 -54.35,26.71 -62.21,35.24 -14.97,1.76 -35.34,9.99 -56.37,44.57 -25.85,42.52 -6.74,89.63 23.34,112.74 16.26,12.48 23.59,26.11 26.87,36 1.22,3.61 6.33,3.59 7.57,0l0 0c3.51,-10.46 4.94,-21.56 3.77,-32.53 -0.71,-6.58 -2.12,-13.7 -4.87,-19.56 -7.25,-15.43 15.54,-25.69 21.94,-38.53 4.92,-9.89 5.15,-32.51 12.89,-48.86l9.28 -12.48c0,0 21.34,-16.51 42.24,-11.85 20.89,4.65 17.9,-73.33 -24.44,-64.75z"/>
   <path class="fil13" d="M3460.41 1970.47c0.22,13.01 -5.72,23.67 -13.28,23.8 -7.57,0.13 -13.88,-10.32 -14.09,-23.33 -0.22,-13.02 5.74,-23.67 13.29,-23.8 7.56,-0.13 13.88,10.31 14.09,23.33z"/>
   <path class="fil3" d="M3572.16 2449.85l1.37 7.94c0.71,4.08 4.59,6.82 8.66,6.11l164.57 -28.5c4.08,-0.7 6.82,-4.59 6.12,-8.68l-1.38 -7.94c-0.7,-4.08 -4.6,-6.82 -8.68,-6.12l-164.54 28.5c-4.1,0.71 -6.85,4.59 -6.12,8.69z"/>
   <path class="fil13" d="M3338.87 2154c19.31,-0.57 36.39,126.78 24.15,139.34 -12.25,12.57 -14.59,169.41 -14.59,169.41l182.13 -4.53 0.04 0.06c3.55,-2.38 41.69,-28.01 47.16,-33.6 5.72,-5.88 33.54,-2.94 40.89,5.14 7.35,8.07 -14.17,5.27 -20.56,8.29 -7.13,3.4 2.57,13.02 2.57,13.02 0,0 46.17,6.69 55.16,-2.86 9,-9.54 33.03,-25.71 36.3,-16.15 1.69,4.91 -10.7,19.85 -17.69,26.1 8.71,-6.52 19.15,-13.44 22.72,-12.25 6.55,2.22 3.82,10.53 0.27,12.98 -3.54,2.45 -40.18,30.42 -45.9,32.38 -5.59,1.92 -90.83,4.02 -105.55,7.29 0,0 -240.17,54.69 -253.83,51.28 -11.97,-3 -23.95,-79.87 -23.95,-138.75 0,-58.9 10.35,-255.4 70.68,-257.14z"/>
   <path class="fil9" d="M3363.92 2124.94c0,0 -41.96,9.81 -68.31,46.74 -27.58,38.65 -51.45,234.09 -51.45,234.09l108.98 17.6 8.7 -96.06 29.13 -43.94 -27.05 -158.43z"/>
   <path class="fil13" d="M3887.63 2200.24c0,0 7.53,-8.37 21.72,-7.35 14.19,1 32.8,18.95 35.4,25.4 1.3,3.3 -7.6,29.46 -11.45,35.22 -2.31,3.39 -7.6,5.1 -9.43,3.3 -1.2,-1.18 0.05,-7.12 0.39,-8.39 0.67,-2.51 5.39,-18.68 5.39,-18.68 0,0 -9.19,16.31 -13.43,17.29 -4.28,0.98 -6.65,-2.47 -6.39,-3.82 1.29,-6.9 8.42,-20.17 8.42,-20.17 0,0 -10.74,15.76 -16.01,14.11 -5.27,-1.65 -3.08,-7.27 -2.3,-9.17 0.78,-1.91 8.14,-12.78 8.14,-12.78 0,0 -11.64,16.13 -13.92,10.35 -1.39,-3.51 6.21,-18.8 6.21,-18.8l-12.74 -6.51z"/>
   <polygon class="fil5" points="3358.1,2108.35 3638,2388.85 3638,2423.37 3317.57,2131.27 "/>
   <polygon class="fil7" points="2296.35,2199.34 2283.45,2223.15 2242.82,2206.65 2219.67,2239.15 2187.26,2231.78 2183.51,2248.19 2226.89,2258.06 2248.82,2227.25 2291.08,2244.44 2310.49,2208.59 "/>
   <polygon class="fil9" points="3402.71,1365.44 3392.13,1393.05 3415.41,1406.76 3401.17,1437.54 3433.43,1444.04 3418.96,1479.07 3446.78,1488.56 3438.84,1522.81 3424.16,1523.64 3430.11,1498.03 3400.75,1488.03 3414.65,1454.35 3381.86,1447.74 3397.58,1413.77 3374.84,1400.39 3384.64,1374.8 3366.67,1369.31 3374.72,1356.91 "/>
   <path class="fil9" d="M4476.15 1271.84c23.43,42.77 7.7,96.41 -35.06,119.79 -42.76,23.39 -96.39,7.68 -119.82,-35.09 -23.38,-42.77 -7.7,-96.4 35.11,-119.79 42.76,-23.39 96.39,-7.68 119.77,35.09z"/>
   <path class="fil18" d="M4364.03 1349.09c12.51,22.87 41.17,31.28 64.07,18.77 22.85,-12.51 31.26,-41.19 18.76,-64.05l-82.83 45.28z"/>
   <polygon class="fil7" points="2625.44,1359.8 2590.89,1368.44 2570.86,1314.37 2518.78,1320.77 2497.18,1282.76 2477.93,1293.7 2506.85,1344.53 2556.2,1338.47 2577.03,1394.71 2629.03,1381.72 "/>
   <path class="fil9" d="M4213.24 1838.73l33.67 -10.61c0,0 33.09,-45.03 31.02,-56.89 -2.07,-11.86 -16.26,-34.06 -10.53,-39.07 5.72,-5 19.05,-11.54 32.37,1.04 9.67,9.13 16.21,50.94 20.97,52.46 2.98,0.95 22.51,-4.59 36.75,-8.87 9.33,-2.81 19.48,-0.11 26.31,7.02l0.05 0.02c4.62,4.81 5.39,12.24 1.73,17.8l-5.68 8.66 8.32 6.29c6.2,4.69 7.55,13.52 3.03,19.79l-4.57 6.39 5.48 3.54c7.02,4.55 8.7,14.28 3.56,20.85l-4.19 5.35 1.2 1.26c5.15,5.24 5.58,13.56 0.91,19.16l-4.28 5.16 -89.7 28.22c-8.42,2.65 -17.27,3.51 -26.02,2.55l-33.24 4.61c-3.56,0.5 -7.02,-1.74 -8.04,-5.26l-23.91 -80.34c-1.15,-3.88 0.96,-7.96 4.76,-9.15z"/>
   <polygon class="fil7" points="2999.19,1448.54 2968.22,1446.04 2963.99,1474.68 2933.37,1473.56 2925.97,1500.44 2902.93,1503.35 2904.41,1515.01 2935.22,1511.12 2942.26,1485.65 2974.08,1486.81 2978.24,1458.64 3006.31,1460.91 "/>
   <path class="fil1" d="M4700.39 1916.12l-21.02 23.43 7.36 30.59c0.62,2.46 -1.88,4.56 -4.23,3.52l-28.72 -12.74 -26.84 16.48c-2.17,1.33 -4.91,-0.4 -4.67,-2.92l3.22 -31.3 -23.95 -20.41c-1.93,-1.65 -1.11,-4.8 1.35,-5.33l30.78 -6.6 11.98 -29.09c1.01,-2.35 4.23,-2.57 5.48,-0.37l15.82 27.22 31.36 2.42c2.55,0.2 3.75,3.21 2.07,5.11z"/>
   <path class="fil9" d="M2328.57 2001.31l-25.13 7.72 -7.9 25.09c-0.63,2.03 -3.31,2.44 -4.55,0.71l-15.11 -21.52 -26.31 0.26c-2.11,0.02 -3.33,-2.41 -2.06,-4.1l15.8 -21.03 -8.37 -24.93c-0.69,-2.01 1.24,-3.93 3.25,-3.24l24.88 8.52 21.12 -15.66c1.71,-1.26 4.14,-0.02 4.1,2.1l-0.43 26.3 21.43 15.25c1.74,1.23 1.31,3.91 -0.73,4.54z"/>
   <path class="fil9" d="M3194.83 1325.05c0,6 -27.66,10.87 -61.8,10.87 -34.13,0 -61.78,-4.86 -61.78,-10.87 0,-6 27.66,-10.86 61.78,-10.86 34.14,0 61.8,4.86 61.8,10.86z"/>
   <path class="fil1" d="M3133.03 1203.59c-11.92,0 -21.58,-9.67 -21.58,-21.59 0,-11.92 9.67,-21.59 21.58,-21.59 11.94,0 21.6,9.67 21.6,21.59 0,11.93 -9.67,21.59 -21.6,21.59zm0 -71.81c-28.11,0 -50.91,20.34 -50.91,45.43 0,25.09 50.91,147.85 50.91,147.85 0,0 50.9,-122.76 50.9,-147.85 0,-25.09 -22.77,-45.43 -50.9,-45.43z"/>
   <polygon class="fil7" points="4192.37,1509.94 4101.36,1539.89 4135.85,1469.48 "/>
   <path class="fil19" d="M4498.47 1551.11l38.33 184.14 254.59 -53.01c7.98,-1.66 13.08,-9.46 11.44,-17.42l-32.32 -155.29c-1.68,-7.96 -9.47,-13.08 -17.46,-11.42l-254.59 53.01z"/>
   <path class="fil5" d="M4577.17 1665.06l10.82 -29.21 -12.89 1.58c-0.77,0.1 -1.39,0.66 -1.63,1.41l-7.89 30.28 8.95 -1.87c1.2,-0.25 2.21,-1.07 2.65,-2.2z"/>
   <path class="fil5" d="M4548.5 1648.78l5.39 -8.65 -5.43 0.83c-0.34,0.05 -0.63,0.22 -0.72,0.45l-4.24 8.87 3.85 -0.8c0.48,-0.11 0.91,-0.37 1.15,-0.7z"/>
   <path class="fil5" d="M4563.5 1599.31l21.55 22.48 -12.41 3.69c-0.77,0.22 -1.59,-0.03 -2.07,-0.65l-19.34 -24.61 8.95 -1.87c1.2,-0.25 2.45,0.11 3.32,0.96z"/>
   <path class="fil5" d="M4543.69 1625.67l8.42 5.79 -5.34 1.41c-0.33,0.09 -0.67,0.04 -0.81,-0.12l-7.41 -6.46 3.8 -0.79c0.53,-0.11 1.01,-0.04 1.35,0.17z"/>
   <path class="fil5" d="M4585.63 1622.37l-36.31 10.91c-1.69,0.49 -6.69,2.99 -6.35,4.66 0.33,1.67 5.96,1.94 7.65,1.74l37.66 -4.5c3.85,-0.46 19.43,-6.8 18.66,-10.57 -0.77,-3.77 -17.65,-3.35 -21.31,-2.25z"/>
   <path class="fil5" d="M4550.13 1604.58l-23.47 4.89c-0.53,0.11 -1.06,-0.23 -1.2,-0.76l0 0c-0.1,-0.53 0.24,-1.06 0.77,-1.17l23.52 -4.89c0.53,-0.11 1.06,0.24 1.15,0.76l0 0c0.09,0.53 -0.24,1.06 -0.77,1.17z"/>
   <path class="fil5" d="M4553.88 1611.22l-23.47 4.89c-0.53,0.11 -1.06,-0.23 -1.15,-0.76l0 0c-0.15,-0.53 0.24,-1.05 0.77,-1.17l23.42 -4.89c0.58,-0.11 1.06,0.23 1.2,0.76l0 0c0.09,0.53 -0.24,1.06 -0.77,1.17z"/>
   <path class="fil5" d="M4562.93 1665.96l-23.47 4.89c-0.53,0.11 -0.91,0.63 -0.77,1.17l0 0c0.09,0.53 0.62,0.87 1.15,0.76l23.47 -4.89c0.53,-0.11 0.87,-0.64 0.77,-1.17l0 0c-0.14,-0.54 -0.62,-0.87 -1.15,-0.76z"/>
   <path class="fil5" d="M4563.7 1658.38l-23.47 4.89c-0.53,0.11 -0.87,0.63 -0.77,1.17l0 0c0.1,0.53 0.67,0.87 1.15,0.76l23.47 -4.89c0.53,-0.11 0.92,-0.63 0.77,-1.17l0 0c-0.1,-0.53 -0.63,-0.88 -1.15,-0.76z"/>
   <path class="fil19" d="M4891.3 1469.33l-102.89 21.43c-11.54,2.4 -19.57,10.81 -17.89,18.77l32.32 155.29c1.64,7.96 12.36,12.47 23.91,10.07l102.89 -21.42 -38.33 -184.14z"/>
   <path class="fil7" d="M4526.9 1687.61l9.91 47.64 254.59 -53.01c7.98,-1.66 13.08,-9.46 11.44,-17.42l-6.93 -33.22 -269.02 56.01z"/>
   <path class="fil7" d="M4777.98 1545.42l-7.46 -35.89c-1.68,-7.96 -9.47,-13.08 -17.46,-11.42l-254.59 53.01 10.48 50.32 269.02 -56.01z"/>
   <polygon class="fil5" points="4770.81,1569.68 4638.59,1597.21 4636.52,1587.35 4768.74,1559.82 "/>
   <polygon class="fil5" points="4877.5,1553.83 4823.29,1565.12 4821.27,1555.26 4875.43,1543.97 "/>
   <polygon class="fil5" points="4886.2,1499.15 4785.68,1520.08 4783.61,1510.22 4884.14,1489.29 "/>
   <polygon class="fil5" points="4774.37,1586.7 4642.1,1614.23 4640.08,1604.37 4772.3,1576.84 "/>
   <polygon class="fil5" points="4778.27,1605.58 4646.04,1633.12 4643.97,1623.26 4776.25,1595.72 "/>
   <polygon class="fil5" points="4929.64,1653.47 4862.44,1667.46 4861.15,1661.28 4928.34,1647.3 "/>
   <polygon class="fil5" points="4927.91,1645.14 4860.71,1659.13 4859.7,1654.38 4926.9,1640.38 "/>
   <polygon class="fil5" points="4926.46,1638.22 4859.27,1652.22 4858.26,1647.46 4925.45,1633.47 "/>
   <polygon class="fil5" points="4916.75,1591.48 4849.5,1605.47 4848.54,1600.72 4915.74,1586.72 "/>
   <polygon class="fil5" points="4915.5,1585.46 4848.26,1599.45 4847.68,1596.49 4914.87,1582.5 "/>
   <polygon class="fil5" points="4914.58,1581.23 4847.39,1595.22 4846.76,1592.26 4914.01,1578.27 "/>
   <polygon class="fil5" points="4925.02,1631.31 4857.83,1645.3 4856,1636.61 4923.19,1622.62 "/>
   <polygon class="fil5" points="4922.95,1621.35 4855.71,1635.35 4853.93,1626.65 4921.13,1612.66 "/>
   <polygon class="fil5" points="4920.89,1611.39 4853.69,1625.39 4851.86,1616.69 4919.06,1602.7 "/>
   <polygon class="fil5" points="4918.82,1601.44 4851.57,1615.43 4849.8,1606.73 4916.99,1592.74 "/>
   <polygon class="fil5" points="4830.56,1546.95 4819.97,1549.15 4814.44,1522.56 4825.02,1520.37 "/>
   <polygon class="fil5" points="4843.54,1544.25 4833.01,1546.44 4827.43,1519.85 4838.01,1517.65 "/>
   <polygon class="fil5" points="4861.19,1540.58 4850.61,1542.78 4845.08,1516.19 4855.61,1513.99 "/>
   <polygon class="fil5" points="4874.18,1537.87 4863.6,1540.07 4858.07,1513.48 4868.65,1511.28 "/>
   <polygon class="fil8" points="2771.67,1556.32 2617.7,1698.05 2555.16,1594.56 "/>
   <polygon class="fil5" points="2553.47,1546.56 2555.16,1594.56 2771.67,1556.32 "/>
   <polygon class="fil5" points="2551.67,1612.06 2771.67,1556.32 2551.87,1684.9 "/>
   <path class="fil9" d="M2545.61 1696.65c0,-0.02 0,-0.04 0.02,-0.06 -0.02,0.02 -0.02,0.04 -0.02,0.06zm-160.55 83.75c0.29,-3.03 3,-5.24 6.04,-4.94 0.35,0.04 35.14,3.24 82.83,-14.7 46.98,-17.67 70.17,-59.08 71.7,-64.2 0.65,-2.94 3.53,-4.83 6.49,-4.23 2.98,0.59 4.92,3.5 4.33,6.5 -1.57,7.83 -28.13,53.28 -78.62,72.28 -50.31,18.92 -86.34,15.51 -87.85,15.35 -3.04,-0.31 -5.24,-3.02 -4.92,-6.05z"/>
   <path class="fil9" d="M2160.66 1791.68c65.11,-0.06 129.64,-11.22 191.75,-33.17 51.14,-18.08 96.3,-52.2 147.53,-65.92 2.96,-0.8 4.7,-3.82 3.92,-6.77 -0.78,-2.94 -3.82,-4.69 -6.76,-3.91 -53.04,14.2 -97.91,48.34 -148.38,66.18 -60.94,21.53 -124.2,32.48 -188.07,32.54 -23.48,0.02 -50.55,-3.67 -80.48,-10.95 -2.98,-0.72 -5.96,1.1 -6.69,4.06 -0.72,2.97 1.1,5.96 4.06,6.68 26.58,6.46 55.63,11.28 83.11,11.26z"/>
   <path class="fil13" d="M5595.15 2741.77c0,0 -10.68,-5.1 -20.44,-23.17 -6.25,-11.58 -24.87,-26.42 -17.12,-28.83 7.74,-2.39 19.63,17.19 21.84,11.58 2.21,-5.61 -19.91,-48.02 -12.89,-50.2 7.02,-2.17 25.35,39.06 27.37,34.05 1.97,-5.02 -18.76,-41.04 -8.85,-44.12 9.91,-3.07 20.59,44.35 25.93,42.71 5.34,-1.67 -2.41,-37.85 5.58,-40.32 7.93,-2.49 6.83,44.75 9.71,43.4 1.54,-0.75 8.61,-23.62 12.94,-21.92 4.91,1.96 -8.32,48.91 -2.45,59.25 5.87,10.35 52.91,139.05 36.8,155.12 -17.51,17.5 -128.96,57.69 -152.24,50.76 -23.33,-6.9 -36.7,-29.95 -31.12,-44.12 5.63,-14.17 115.83,-46 117.56,-50.45 1.78,-4.45 -12.6,-93.75 -12.6,-93.75z"/>
   <path class="fil11" d="M5586.06 2703.98c3.37,-0.14 6.69,0.63 9.91,1.78 0.43,0.33 11.01,3.43 15.54,15.09 -5,-5.96 -10.58,-12.57 -25.44,-16.88z"/>
   <path class="fil13" d="M5075.43 3510.7c0,0 5.53,60.19 1.88,79.81 -0.48,2.63 -1.54,5.96 -2.79,9.64 -3.7,11 6.49,44.59 6.49,44.59l137.18 0.51c7.46,0.02 2.45,-4.7 -3.61,-9.06 -9.96,-7.11 -17.99,-11.8 -49.64,-26.6 -2.07,-0.98 -9.62,-5.62 -12.36,-7.23 -6.88,-4.1 -13.81,-10.57 -19.82,-17.06 -9.96,-10.81 -11.5,-63.85 -11.5,-63.85l-45.84 -10.76z"/>
   <path class="fil3" d="M5152.58 3602.35c-36.12,9.74 -63.01,3.76 -78.11,-2.1 -3.7,11 -10.39,48.79 -6.2,48.79 34.39,0 63.35,0.41 161.13,0.84 3.56,0.02 3.65,-8.7 1.39,-11.39 -6.4,-7.39 -75.47,-34.52 -78.21,-36.15z"/>
   <path class="fil12" d="M4903.43 2796.22c0,0 1.93,85.91 26.55,140.93 24,53.59 138.77,185.76 169.26,262.91 -9.43,43.49 -35.35,104.65 -33.48,152.89 2.11,54.65 -1.06,199.24 -1.06,199.24l61.61 1.96 80.76 -373.16 -121.74 -402.62 -55.22 -97.77 -126.69 115.63z"/>
   <path class="fil13" d="M4640.27 3425.12c0,0 -37.85,51.94 -54.5,65.07 -8.94,7.04 -33.19,16.46 -35.74,28.09 -2.55,11.64 109.76,114.49 109.76,114.49 5.96,5.25 5.34,-2.04 3.51,-9.76 -2.93,-12.66 -6.06,-22.03 -20.97,-56.09 -0.96,-2.22 -3.7,-11.23 -4.76,-14.43 -2.65,-8.09 -3.66,-18.13 -3.9,-27.52 -0.34,-15.64 35.69,-59.07 35.69,-59.07l-29.1 -40.77z"/>
   <path class="fil3" d="M4637.58 3552.47c-35.69,-17.58 -52.96,-41.24 -60.94,-56.49 -10.68,6.15 -39.44,19.28 -36.89,22.95 19.87,28.83 40.5,64.69 120.3,132.62 2.84,2.43 14.53,-11.58 14.57,-15.35 0.15,-10.35 -35.98,-80.52 -37.04,-83.73z"/>
   <path class="fil3" d="M5093.37 2181.8c-10.63,-69.28 -73.3,-119.09 -138.86,-85.48 -14.77,7.56 -34.68,22.9 -44.88,35.97 -28,35.93 -34.78,80.48 -64.5,115.04 -25.54,29.8 -93.89,24.17 -125.78,47.08 -31.89,22.93 -54.26,64.02 -54.26,113.16 0,54.98 12.41,113.31 55.02,148.06 42.57,34.75 103.08,43.41 156.04,28.7 53,-14.74 98.41,-50.83 131.12,-95 32.71,-44.18 55.8,-92.59 72.1,-145.11 18.23,-58.59 20.87,-117.64 14,-162.41z"/>
   <path class="fil11" d="M5090.2 2507.01c0,0 66.52,150.59 79.17,184.58 12.65,33.96 79.03,147.61 81.77,151.94 2.74,4.33 63.06,12.04 59.69,19.8 -3.42,7.78 -29.1,-1.96 -29.1,2.3 0,9.6 37.52,80.01 31.46,81.71 -11.4,3.17 -23.28,-43.49 -28.38,-41.04 -5.05,2.45 23.96,43.16 16.93,50.16 -7.02,7.02 -23.71,-41.14 -28.33,-41.18 -4.62,-0.04 24.77,47.51 14.77,46.71 -5.44,-0.45 -26.6,-44.24 -31.17,-39.69 -1.93,1.93 20.68,37.2 14.48,36.11 -6.16,-1.12 -24.05,-28.97 -31.17,-44.65 -7.12,-15.68 -3.89,-30.85 -22.8,-52.33 -18.9,-21.48 -94.71,-89.32 -117.17,-143.59 -22.46,-54.28 -72.44,-174.07 -72.44,-174.07l62.29 -36.74z"/>
   <path class="fil16" d="M5034.11 2353.93c0,0 55.27,26.41 82.54,190.81l-93.74 26.13 -39.01 -105.96 50.21 -110.98z"/>
   <path class="fil1" d="M4907.75 2741.2c0,0 -47.62,71.54 -58.97,130.74 -11.02,57.66 7.31,231.74 -11.88,312.43 -32.66,30.26 -88.94,65.55 -115,106.14 -29.58,46 -115.01,162.7 -115.01,162.7l49.35 36.89 279.99 -259.55 113.37 -346.29 38.91 -101.26 -180.76 -41.81z"/>
   <path class="fil9" d="M4946.33 2334.19c0,0 -63.06,-4 -88.02,23.13 -24.96,27.13 55.36,241.77 59.89,276.31 4.52,34.54 -45.17,153.02 -45.17,153.02 0,0 181.48,31.52 223.81,3.57 0,0 -6.78,-276.78 -11.3,-301.44 -4.57,-24.68 -42.38,-124.99 -51.42,-134.85 -9.09,-9.88 -87.78,-19.74 -87.78,-19.74z"/>
   <path class="fil13" d="M4967.3 2250.1c0,0 -0.33,1.86 -0.91,5.02 -2.79,15.13 -13.61,65.31 -20.92,79.11 -8.85,16.68 30.2,69.85 67.87,63.37 11.16,-1.94 -9.48,-48.86 -8.47,-53.84 1.88,-9.51 4.48,-22.5 7.12,-35.81 1.49,-7.5 2.98,-15.11 4.38,-22.26 4.04,-20.35 7.31,-36.96 7.31,-36.96l-56.37 1.39z"/>
   <path class="fil14" d="M4966.39 2255.12c0.58,-3.15 0.91,-5.02 0.91,-5.02l56.37 -1.39c0,0 -3.27,16.62 -7.31,36.96 -1.39,7.11 -2.89,14.68 -4.38,22.15 -8.7,-1.28 -17.8,-5.51 -26.93,-13.46 -9.91,-8.69 -16.45,-19.13 -20.39,-30.29 0.72,-3.54 1.3,-6.62 1.73,-8.96z"/>
   <path class="fil13" d="M5005.25 2122.2c0,0 -26.6,-3.06 -43.24,18.43 -16.65,21.51 -34.63,88.01 6.73,124.15 41.41,36.17 82.3,-4.76 88.36,-48.16 6.06,-43.38 8.42,-95.99 -51.85,-94.43z"/>
   <path class="fil13" d="M5069.37 2216c-4.96,9.58 -13.23,14.88 -18.52,11.84 -5.29,-3.04 -5.58,-13.27 -0.63,-22.84 4.91,-9.58 13.23,-14.89 18.52,-11.86 5.29,3.04 5.53,13.27 0.63,22.86z"/>
   <path class="fil3" d="M5008.24 2115.09c0,0 -35.55,63.23 -60.94,66.16 -25.4,2.92 -28.72,36.53 -28.72,36.53 0,0 9.09,-77.43 34.25,-92.37 25.11,-14.93 55.41,-10.32 55.41,-10.32z"/>
   <path class="fil13" d="M4953.98 2197.14c2.07,11.24 -2.07,21.53 -9.28,23 -7.17,1.48 -14.72,-6.43 -16.74,-17.67 -2.07,-11.23 2.07,-21.52 9.24,-22.99 7.21,-1.49 14.72,6.43 16.78,17.66z"/>
   <path class="fil8" d="M4167.06 3543.87l33.53 13.28 490.28 -659.33 0 0c-18.47,-7.31 -27.8,5.21 -37.76,18.64l-486.05 627.4z"/>
   <path class="fil5" d="M4219.01 3581.8l33.53 13.29 490.47 -676.6c6.97,-9.35 -11.74,-15.33 -11.74,-15.33l-512.26 678.64z"/>
   <path class="fil16" d="M4263.46 3230.67l-49.88 -19.83 61.28 -81.67c50.89,-67.8 167.44,-92.83 260.32,-55.9l83.89 33.36 -366.52 488.47 -202.17 -80.39 -62.58 -44.14 275.66 -239.89z"/>
   <path class="fil20" d="M4619.06 3106.62l-366.52 488.47 -202.17 -80.39 4.76 -6.35 0 0c140.74,9.58 465.7,-324.14 545.84,-408.93l18.09 7.2z"/>
   <path class="fil20" d="M4361.34 3262.09c30.21,-33.56 76.96,-82.66 110.63,-112.33 -36.41,51.33 -104.86,125.15 -105.77,126.23 -40.11,-16.15 -92.54,-36.26 -152.62,-65.15 50.55,15.31 99.42,32.91 147.76,51.26z"/>
   <path class="fil8" d="M4291.59 3603.12c0,25.41 -20.59,45.98 -45.94,45.98 -25.39,0 -45.98,-20.58 -45.98,-45.98 0,-25.38 20.59,-45.96 45.98,-45.96 25.35,0 45.94,20.58 45.94,45.96z"/>
   <path class="fil5" d="M4264.56 3603.12c0,10.47 -8.46,18.93 -18.91,18.93 -10.48,0 -18.95,-8.46 -18.95,-18.93 0,-10.45 8.46,-18.91 18.95,-18.91 10.44,0 18.91,8.46 18.91,18.91z"/>
   <path class="fil21" d="M4827.09 2500.6c0,0 -43.92,158.67 -51.52,194.12 -7.55,35.48 -56.71,157.55 -58.78,162.24 -2.07,4.69 -45.46,49.02 -39.64,57.98 3.22,5 12.84,10.86 17.41,10.14 4.57,-0.71 7.22,3.02 13.32,5.07 6.11,2.07 17.51,0.61 22.27,-15.94 4.76,-16.56 6.93,-20.44 22.51,-44.45 15.54,-24.01 80.66,-102.14 95,-159.12 14.33,-56.96 46.37,-182.75 46.37,-182.75l-66.95 -27.28z"/>
   <path class="fil5" d="M4710.45 2930.76c6.35,0.84 15.54,-2.1 19.72,-16.55 1.15,-4 2.17,-7.27 3.22,-10.25 -1.25,-0.53 -2.12,-0.8 -2.12,-0.8l-20.83 27.6z"/>
   <path class="fil9" d="M4810.16 2549.35c0,0 3.94,-130.5 21.65,-167.18 17.7,-36.65 61.76,-57.62 78.45,-25.52 17.17,33.15 -12.7,194.19 -12.7,194.19l-87.4 -1.49z"/>
   <polygon class="fil8" points="5565.13,2844.52 5493.27,2849.79 5515.3,2935.05 5588.99,2921.78 "/>
   <path class="fil16" d="M5318.86 2889.73c0,0 -16.02,197.93 -16.02,215.12 0,17.19 68.25,22.05 68.25,22.05l20.88 -203.1 -73.11 -34.07z"/>
   <path class="fil9" d="M5420.74 2841.57c0,0 -44.35,-23.74 -80.86,-2 -36.51,21.76 -46.46,149.48 -46.46,149.48l116.98 14.03 10.34 -161.51z"/>
   <path class="fil13" d="M5266.48 3552.69c0,0 -7.56,26.87 -13.57,32.89 -6.01,6 -25.88,29.3 -21.02,40.85 4.91,11.54 126.17,28.09 130.78,23.48 4.62,-4.59 -20.97,-24.07 -35.45,-36 -14.48,-11.96 -24.82,-26.64 -18.76,-44.45 6.06,-17.8 6.06,-16.06 6.06,-17.8 0,-1.76 -48.05,1.04 -48.05,1.04z"/>
   <path class="fil3" d="M5362.68 3649.91c5.48,-4.12 -11.54,-22.5 -36.22,-36.69 -10.34,-0.02 -24.15,-0.7 -35.83,-3.63 -18.28,-4.56 -32.28,-20.4 -36.41,-25.54 -0.39,0.52 -29.77,28.83 -24.05,42.37 4.86,11.54 121.55,31.71 132.52,23.48z"/>
   <path class="fil13" d="M5467.73 3565.74c0,0 2.21,27.62 -2.31,34.77 -4.57,7.18 -20.49,35.58 -11.59,44.45 7.98,8 119.05,2.86 122.56,-2.64 3.51,-5.49 -15.54,-21.9 -32.28,-30.38 -16.74,-8.49 -30.06,-20.56 -27.99,-39.26 2.02,-18.72 2.41,-17 2.02,-18.72 -0.39,-1.73 -50.41,11.78 -50.41,11.78z"/>
   <path class="fil3" d="M5590.19 3646.75c5.78,-3.69 -19.81,-26.83 -46.99,-35.28 -10.1,2.24 -23.71,4.55 -35.74,4.26 -18.85,-0.47 -35.98,-12.86 -41.17,-16.97 -0.24,0.59 -25.54,37.24 -14.19,46.61 8.85,7.29 129.3,6.98 138.09,1.39z"/>
   <path class="fil7" d="M5475.86 3174.74l-71.77 207.81 -82.25 192.4 -68.93 -17.3c0,0 24.87,-133.36 48.24,-175.27 17.65,-31.7 30.02,-213.61 30.02,-213.61l144.69 5.98z"/>
   <path class="fil6" d="M5441.42 3209.71l24.82 365.24 58.73 0c0,0 25.64,-382.66 16.26,-419.08 -9.43,-36.4 -107.21,-28.19 -107.21,-28.19l7.41 82.03z"/>
   <path class="fil5" d="M5497.75 2851.12c0,0 -75.66,-22.68 -87.35,-21.22 -12.75,1.61 -43.72,18.03 -43.72,18.03 0,0 1.88,131.41 -3.61,168.55 -5.48,37.16 -43.82,156.18 -43.82,156.18 0,0 54.02,31.32 144.83,21.15 90.86,-10.19 84.56,-32.11 84.56,-32.11 0,0 -8.61,-131.56 -17.22,-189.5 -8.61,-57.94 -33.67,-121.07 -33.67,-121.07z"/>
   <path class="fil9" d="M5378.8 2841.85c0,0 17.03,-2.57 31.6,52.69 16.59,62.63 -1.25,127.48 -28.62,143.93 -27.37,16.43 -38.67,13.24 -38.67,13.24l4.28 38.63c0,0 80.91,-18.11 91.92,-87.26 18.08,-113.35 -35.21,-171.72 -35.21,-171.72 0,0 -10,1.61 -13.13,2.88 -3.32,1.36 -12.17,7.61 -12.17,7.61z"/>
   <path class="fil13" d="M5336.95 2972.72c0,0 0,66.82 0,80.91 0,14.09 16.21,109.51 36.03,142.19 19.87,32.69 46.75,69.15 52.33,71.22 5.53,2.1 17.65,9.74 23.91,3.49 6.26,-6.27 11.21,-3.39 19.05,-6.8 7.84,-3.39 -1.06,-14.61 -12.02,-25.58 -10.92,-10.96 -13.28,-13.56 -11.45,-15.39 1.83,-1.82 10.68,8.35 15.39,6.78 4.67,-1.57 -2.89,-18.02 -15.15,-23.76 -12.26,-5.74 -31.84,-16.96 -33.67,-22.97 -1.83,-6 -1.83,-4.43 -1.83,-6 0,-1.57 -13.8,-96.31 -13.8,-114.84 0,-18.54 -5.48,-78.83 -5.48,-78.83l-53.3 -10.43z"/>
   <path class="fil8" d="M5373.98 2844.71c-7.12,0.88 -26.45,7.94 -33.24,30.91 -6.78,22.97 -24.67,88.22 -21.5,120.05 0,0 76.19,9.92 76.19,6.8 0,-3.14 16.69,-84.83 8.37,-120.6 -7.26,-31.19 -17.46,-38.72 -29.82,-37.16z"/>
   <path class="fil9" d="M5485.91 2847.65l52.96 190.41 0 0c-2.31,-24.87 -4.85,-48.63 -7.45,-65.86 -8.61,-57.94 -34.1,-122.7 -34.1,-122.7 0,0 -4.04,-1 -11.4,-1.85z"/>
   <path class="fil20" d="M5455.56 2653c0,0 28.76,-10.41 47.33,18.7 18.57,29.13 8.56,26.36 17.56,40.93 9.04,14.56 32.66,11.54 32.66,34.12 0,22.6 -10.54,26.11 -10.54,26.11 0,0 9.52,17.59 -1.06,35.66 -10.53,18.07 -36.8,33.64 -58.78,31.13 0,0 -33.05,18.11 -66.19,9.54 -33.14,-8.54 -21.6,-8.54 -35.16,-8.54 -13.56,0 -50.17,-18.58 -44.16,-45.69 0,0 -22.32,-26.52 -0.67,-48.2 21.69,-21.65 25.78,-43.67 38.34,-72.78 12.5,-29.13 65.61,-27.99 80.66,-20.97z"/>
   <path class="fil13" d="M5474.8 2808c0,0 -1.25,39.98 2.55,43.72 3.7,3.77 8.99,10 3.46,19.52 -5.53,9.54 -29.53,3.45 -40.69,-2 -10.68,-5.23 -17.6,-14.99 -17.6,-14.99l5.58 -63.33 46.7 17.08z"/>
   <path class="fil22" d="M5458.83 2824.56c-7.7,-2.69 -21.12,-7.9 -31.51,-24.75l0.77 -8.89 46.7 17.08c0,0 -0.34,9.76 -0.15,20.07 -6.54,-0.26 -12.17,-2.22 -15.82,-3.51z"/>
   <path class="fil13" d="M5419.87 2745.73c0,0 -1.16,-23.52 -15.59,-18.96 -14.43,4.57 -3.41,40.04 8.52,38.89 11.98,-1.18 7.07,-19.93 7.07,-19.93z"/>
   <path class="fil13" d="M5465.23 2668.95c0,0 22.61,-0.51 34.15,17.05 11.54,17.58 24.1,67.78 5,102.41 -19.05,34.65 -43.39,26.11 -53.44,22.6 -10.05,-3.51 -29.87,-11.31 -39.92,-43.67 -10.06,-32.41 -2.79,-105.18 54.21,-98.4z"/>
  </g>
 </g>
</svg>
